<svg xmlns="http://www.w3.org/2000/svg" viewBox="0 0 500 432.6"><title>onken-logoAsset 1</title><g id="Layer_2" data-name="Layer 2"><g id="Layer_1-2" data-name="Layer 1"><path d="M500,213v5c-2.2,2.89-4.76,5.58-6.56,8.7-37.28,64.46-74.62,128.89-111.5,193.57-5.12,9-10.7,12.38-21.43,12.29q-111.12-.89-222.27-.08c-9.55.06-14.84-2.76-19.59-11.11C84.73,361.74,50.33,302.34,16,242.93,11,234.41,5.33,226.33,0,218v-5c3.34-4.51,7.14-8.75,9.94-13.58Q64.68,105.05,119,10.39C123.2,3.06,127.66,0,136.42,0Q250,.55,363.58,0c8.76,0,13.22,3.06,17.4,10.4Q431.7,99.22,483.16,187.61C488.25,196.39,494.36,204.58,500,213ZM158.59,86V345.67c36.29,0,71.9,3.19,106.71-.74,55.29-6.23,93.55-44,103.24-98.46,3.44-19.32,3.12-39.9,1-59.52-6-55.41-38.82-91.82-94.1-99.06C237.76,83,199.13,85.46,160.93,84.7,160.22,84.68,159.5,85.46,158.59,86Z"/><path d="M212,295V136.37c33.68.72,70-6,91.25,27.24,20.17,31.5,19.13,66.89,1.58,99.84C290.37,290.59,259.27,300.11,212,295Z"/></g></g></svg>